<svg width="15" height="15" viewBox="0 0 15 15" fill="none" xmlns="http://www.w3.org/2000/svg">
<path d="M0.0810555 2.06951C0.0810555 1.59187 0.266582 1.13379 0.596821 0.796042C0.92706 0.458298 1.37496 0.268555 1.84199 0.268555H10.4866C10.9536 0.268555 11.4015 0.458298 11.7317 0.796042C12.062 1.13379 12.2475 1.59187 12.2475 2.06951V2.89336C12.8553 2.9349 13.425 3.21115 13.8411 3.66617C14.2573 4.12118 14.4887 4.72094 14.4887 5.34397V12.2203C14.4887 12.8717 14.2357 13.4963 13.7854 13.9569C13.335 14.4174 12.7243 14.6762 12.0874 14.6762H2.48489C1.84803 14.6762 1.23726 14.4174 0.786933 13.9569C0.336607 13.4963 0.0836169 12.8717 0.0836169 12.2203V5.34397H0.0810555V2.23323H0.0880992C0.0833539 2.17879 0.0810037 2.12416 0.0810555 2.06951ZM11.287 2.06951C11.287 1.61763 10.9284 1.25089 10.4866 1.25089H1.84199C1.6297 1.25089 1.42611 1.33714 1.276 1.49066C1.12589 1.64418 1.04156 1.8524 1.04156 2.06951C1.04156 2.28662 1.12589 2.49484 1.276 2.64836C1.42611 2.80188 1.6297 2.88812 1.84199 2.88812H11.287V2.06951ZM10.1664 8.78216C10.039 8.78216 9.91687 8.8339 9.8268 8.92601C9.73674 9.01813 9.68614 9.14306 9.68614 9.27332C9.68614 9.40359 9.73674 9.52852 9.8268 9.62063C9.91687 9.71275 10.039 9.76449 10.1664 9.76449H11.7672C11.8946 9.76449 12.0168 9.71275 12.1068 9.62063C12.1969 9.52852 12.2475 9.40359 12.2475 9.27332C12.2475 9.14306 12.1969 9.01813 12.1068 8.92601C12.0168 8.8339 11.8946 8.78216 11.7672 8.78216H10.1664Z" fill="white"/>
</svg>
