<svg width="199" height="65" viewBox="0 0 199 65" fill="none" xmlns="http://www.w3.org/2000/svg">
    <path d="M84.2426 22.9131C86.4369 22.9131 88.3619 23.3419 90.0176 24.1997C91.6933 25.0575 92.98 26.2843 93.8776 27.8802C94.7952 29.4561 95.254 31.2913 95.254 33.3859C95.254 35.4804 94.7952 37.3157 93.8776 38.8916C92.98 40.4475 91.6933 41.6544 90.0176 42.5122C88.3619 43.3699 86.4369 43.7988 84.2426 43.7988H76.9416V22.9131H84.2426ZM84.093 40.2381C86.2873 40.2381 87.9829 39.6396 89.1798 38.4427C90.3767 37.2458 90.9752 35.5602 90.9752 33.3859C90.9752 31.2115 90.3767 29.5159 89.1798 28.2991C87.9829 27.0623 86.2873 26.4439 84.093 26.4439H81.1307V40.2381H84.093ZM100.514 25.247C99.7762 25.247 99.1578 25.0176 98.6591 24.5588C98.1804 24.08 97.941 23.4916 97.941 22.7934C97.941 22.0952 98.1804 21.5167 98.6591 21.0579C99.1578 20.5791 99.7762 20.3397 100.514 20.3397C101.252 20.3397 101.861 20.5791 102.34 21.0579C102.838 21.5167 103.088 22.0952 103.088 22.7934C103.088 23.4916 102.838 24.08 102.34 24.5588C101.861 25.0176 101.252 25.247 100.514 25.247ZM102.579 27.2219V43.7988H98.3898V27.2219H102.579ZM113.63 39.9388L117.819 27.2219H122.277L116.143 43.7988H111.057L104.952 27.2219H109.441L113.63 39.9388ZM140.04 35.1513C140.04 35.7497 140 36.2883 139.921 36.7671H127.802C127.902 37.964 128.321 38.9015 129.059 39.5798C129.797 40.258 130.705 40.5971 131.782 40.5971C133.338 40.5971 134.445 39.9289 135.103 38.5923H139.621C139.143 40.1882 138.225 41.5048 136.868 42.5421C135.512 43.5594 133.846 44.0681 131.871 44.0681C130.276 44.0681 128.839 43.719 127.563 43.0208C126.306 42.3027 125.318 41.2953 124.6 39.9987C123.902 38.7021 123.553 37.2059 123.553 35.5103C123.553 33.7948 123.902 32.2887 124.6 30.9921C125.299 29.6954 126.276 28.698 127.533 27.9998C128.789 27.3017 130.236 26.9526 131.871 26.9526C133.447 26.9526 134.854 27.2917 136.091 27.9699C137.347 28.6482 138.315 29.6157 138.993 30.8724C139.691 32.1092 140.04 33.5355 140.04 35.1513ZM135.702 33.9544C135.682 32.8772 135.293 32.0194 134.535 31.3811C133.777 30.7228 132.849 30.3936 131.752 30.3936C130.714 30.3936 129.837 30.7128 129.119 31.3511C128.42 31.9695 127.992 32.8373 127.832 33.9544H135.702ZM150.309 44.0083C148.853 44.0083 147.536 43.7589 146.359 43.2602C145.202 42.7615 144.285 42.0434 143.607 41.1058C142.928 40.1683 142.579 39.0611 142.559 37.7844H147.048C147.108 38.6422 147.407 39.3205 147.945 39.8192C148.504 40.3179 149.262 40.5672 150.219 40.5672C151.197 40.5672 151.965 40.3378 152.523 39.879C153.082 39.4002 153.361 38.7819 153.361 38.0238C153.361 37.4054 153.172 36.8967 152.793 36.4978C152.414 36.0988 151.935 35.7896 151.357 35.5702C150.798 35.3308 150.02 35.0715 149.023 34.7922C147.666 34.3932 146.559 34.0043 145.701 33.6252C144.863 33.2263 144.135 32.6378 143.517 31.8598C142.918 31.0619 142.619 30.0046 142.619 28.6881C142.619 27.4513 142.928 26.3741 143.547 25.4565C144.165 24.5388 145.033 23.8406 146.15 23.3619C147.267 22.8632 148.544 22.6138 149.98 22.6138C152.134 22.6138 153.88 23.1425 155.216 24.1997C156.573 25.237 157.321 26.6932 157.461 28.5684H152.853C152.813 27.8502 152.504 27.2618 151.925 26.803C151.366 26.3242 150.618 26.0848 149.681 26.0848C148.863 26.0848 148.205 26.2943 147.706 26.7132C147.227 27.1321 146.988 27.7405 146.988 28.5384C146.988 29.097 147.167 29.5658 147.526 29.9448C147.905 30.3039 148.364 30.6031 148.903 30.8425C149.461 31.0619 150.239 31.3212 151.237 31.6204C152.593 32.0194 153.7 32.4184 154.558 32.8173C155.416 33.2163 156.154 33.8148 156.772 34.6127C157.391 35.4106 157.7 36.4579 157.7 37.7545C157.7 38.8716 157.411 39.9089 156.832 40.8664C156.254 41.824 155.406 42.592 154.289 43.1705C153.172 43.729 151.845 44.0083 150.309 44.0083ZM176.742 35.1513C176.742 35.7497 176.702 36.2883 176.622 36.7671H164.504C164.603 37.964 165.022 38.9015 165.76 39.5798C166.498 40.258 167.406 40.5971 168.483 40.5971C170.039 40.5971 171.146 39.9289 171.805 38.5923H176.323C175.844 40.1882 174.927 41.5048 173.57 42.5421C172.214 43.5594 170.548 44.0681 168.573 44.0681C166.977 44.0681 165.541 43.719 164.264 43.0208C163.008 42.3027 162.02 41.2953 161.302 39.9987C160.604 38.7021 160.255 37.2059 160.255 35.5103C160.255 33.7948 160.604 32.2887 161.302 30.9921C162 29.6954 162.978 28.698 164.234 27.9998C165.491 27.3017 166.937 26.9526 168.573 26.9526C170.149 26.9526 171.555 27.2917 172.792 27.9699C174.049 28.6482 175.016 29.6157 175.695 30.8724C176.393 32.1092 176.742 33.5355 176.742 35.1513ZM172.403 33.9544C172.383 32.8772 171.994 32.0194 171.236 31.3811C170.478 30.7228 169.551 30.3936 168.453 30.3936C167.416 30.3936 166.538 30.7128 165.82 31.3511C165.122 31.9695 164.693 32.8373 164.534 33.9544H172.403ZM178.722 35.4505C178.722 33.7749 179.051 32.2887 179.71 30.9921C180.388 29.6954 181.296 28.698 182.433 27.9998C183.59 27.3017 184.876 26.9526 186.293 26.9526C187.529 26.9526 188.607 27.2019 189.524 27.7006C190.462 28.1993 191.21 28.8277 191.768 29.5857V27.2219H195.988V43.7988H191.768V41.3751C191.23 42.1531 190.482 42.8014 189.524 43.3201C188.587 43.8188 187.5 44.0681 186.263 44.0681C184.866 44.0681 183.59 43.7091 182.433 42.9909C181.296 42.2728 180.388 41.2654 179.71 39.9688C179.051 38.6522 178.722 37.1461 178.722 35.4505ZM191.768 35.5103C191.768 34.493 191.569 33.6252 191.17 32.9071C190.771 32.169 190.232 31.6105 189.554 31.2315C188.876 30.8325 188.148 30.633 187.37 30.633C186.592 30.633 185.874 30.8225 185.215 31.2015C184.557 31.5806 184.019 32.1391 183.6 32.8772C183.201 33.5953 183.001 34.4531 183.001 35.4505C183.001 36.4479 183.201 37.3256 183.6 38.0837C184.019 38.8218 184.557 39.3903 185.215 39.7892C185.894 40.1882 186.612 40.3877 187.37 40.3877C188.148 40.3877 188.876 40.1982 189.554 39.8192C190.232 39.4202 190.771 38.8616 191.17 38.1435C191.569 37.4054 191.768 36.5277 191.768 35.5103Z" fill="white"/>
    <path d="M57.5514 44.3083C55.1681 44.3083 54.1118 43.3874 52.6222 42.0874C50.9702 40.6791 48.9119 38.8916 45.0389 38.8916C41.1389 38.8916 39.1076 40.6791 37.4556 42.0874C35.966 43.3874 34.8827 44.3083 32.4993 44.3083C30.1431 44.3083 29.0597 43.3874 27.5702 42.0874C25.9181 40.6791 23.8598 38.8916 19.9869 38.8916C16.0869 38.8916 14.0285 40.6791 12.3765 42.0874C10.8869 43.3874 9.8306 44.3083 7.44727 44.3083C6.33685 44.3083 5.41602 45.2291 5.41602 46.3395C5.41602 47.477 6.33685 48.3708 7.44727 48.3708C11.3473 48.3708 13.3785 46.6104 15.0306 45.1749C16.5201 43.8749 17.6035 42.9541 19.9869 42.9541C22.3702 42.9541 23.4265 43.8749 24.916 45.1749C26.5681 46.6104 28.6264 48.3708 32.4993 48.3708C36.3993 48.3708 38.4577 46.6104 40.1098 45.1749C41.5993 43.8749 42.6556 42.9541 45.0389 42.9541C47.3952 42.9541 48.4785 43.8749 49.9681 45.1749C51.6202 46.6104 53.6785 48.3708 57.5514 48.3708C58.6618 48.3708 59.5827 47.477 59.5827 46.3395C59.5827 45.2291 58.6618 44.3083 57.5514 44.3083Z" fill="white"/>
    <path d="M57.5514 33.1501C55.1681 33.1501 54.1118 32.2021 52.6222 30.9292C50.9702 29.4938 48.9119 27.7334 45.0389 27.7334C41.1389 27.7334 39.1076 29.4938 37.4556 30.9292C35.966 32.2021 34.8827 33.1501 32.4993 33.1501C30.1431 33.1501 29.0597 32.2021 27.5702 30.9292C25.9181 29.4938 23.8598 27.7334 19.9869 27.7334C16.0869 27.7334 14.0285 29.4938 12.3765 30.9292C10.8869 32.2021 9.8306 33.1501 7.44727 33.1501C6.33685 33.1501 5.41602 34.0438 5.41602 35.1813C5.41602 36.2917 6.33685 37.2126 7.44727 37.2126C11.3473 37.2126 13.3785 35.4251 15.0306 33.9896C16.5201 32.7167 17.6035 31.7959 19.9869 31.7959C22.3702 31.7959 23.4265 32.7167 24.916 33.9896C26.5681 35.4251 28.6264 37.2126 32.4993 37.2126C36.3993 37.2126 38.4577 35.4251 40.1098 33.9896C41.5993 32.7167 42.6556 31.7959 45.0389 31.7959C47.3952 31.7959 48.4785 32.7167 49.9681 33.9896C51.6202 35.4251 53.6785 37.2126 57.5514 37.2126C58.6618 37.2126 59.5827 36.2917 59.5827 35.1813C59.5827 34.0438 58.6618 33.1501 57.5514 33.1501Z" fill="white"/>
    <path d="M7.44727 26.1091C11.3473 26.1091 13.3785 24.3216 15.0306 22.9132C16.5201 21.6132 17.6035 20.6924 19.9869 20.6924C22.3702 20.6924 23.4265 21.6132 24.916 22.9132C26.5681 24.3216 28.6264 26.1091 32.4993 26.1091C36.3993 26.1091 38.4577 24.3216 40.1098 22.9132C41.5993 21.6132 42.6556 20.6924 45.0389 20.6924C47.3952 20.6924 48.4785 21.6132 49.9681 22.9132C51.6202 24.3216 53.6785 26.1091 57.5514 26.1091C58.6618 26.1091 59.5827 25.1882 59.5827 24.0778C59.5827 22.9403 58.6618 22.0466 57.5514 22.0466C55.1681 22.0466 54.1118 21.1257 52.6222 19.8257C50.9702 18.3903 48.9119 16.6299 45.0389 16.6299C41.1389 16.6299 39.1076 18.3903 37.4556 19.8257C35.966 21.1257 34.8827 22.0466 32.4993 22.0466C30.1431 22.0466 29.0597 21.1257 27.5702 19.8257C25.9181 18.3903 23.8598 16.6299 19.9869 16.6299C16.0869 16.6299 14.0285 18.3903 12.3765 19.8257C10.8869 21.1257 9.8306 22.0466 7.44727 22.0466C6.33685 22.0466 5.41602 22.9403 5.41602 24.0778C5.41602 25.1882 6.33685 26.1091 7.44727 26.1091Z" fill="white"/>
</svg>
