<svg width="15" height="15" viewBox="0 0 22 22" fill="none" xmlns="http://www.w3.org/2000/svg">
<circle cx="11.0402" cy="10.8644" r="10.3839" fill="white"/>
<path fill-rule="evenodd" clip-rule="evenodd" d="M11.0389 1.99805C6.14215 1.99805 2.17236 5.96784 2.17236 10.8646C2.17236 15.7613 6.14215 19.7311 11.0389 19.7311C15.9356 19.7311 19.9054 15.7613 19.9054 10.8646C19.9054 5.96784 15.9356 1.99805 11.0389 1.99805ZM14.8821 9.36533C14.9529 9.28444 15.0068 9.19021 15.0406 9.08819C15.0744 8.98616 15.0875 8.87841 15.079 8.77126C15.0706 8.66411 15.0408 8.55974 14.9914 8.46427C14.942 8.36881 14.8741 8.28418 14.7915 8.21537C14.7089 8.14657 14.6134 8.09497 14.5106 8.06361C14.4078 8.03226 14.2998 8.02178 14.1929 8.03279C14.086 8.04381 13.9823 8.07609 13.8881 8.12775C13.7938 8.17941 13.7109 8.24939 13.644 8.33359L10.178 12.492L8.38458 10.6977C8.23256 10.5509 8.02895 10.4697 7.8176 10.4715C7.60626 10.4733 7.40409 10.5581 7.25465 10.7075C7.1052 10.857 7.02043 11.0592 7.01859 11.2705C7.01675 11.4818 7.098 11.6855 7.24483 11.8375L9.66297 14.2556C9.74217 14.3348 9.83699 14.3966 9.94139 14.437C10.0458 14.4775 10.1575 14.4958 10.2693 14.4907C10.3812 14.4856 10.4908 14.4573 10.5911 14.4075C10.6914 14.3578 10.7802 14.2876 10.8519 14.2016L14.8821 9.36533Z" fill="#007AFF"/>
</svg>